# xmcd
#
# Track frame offsets: 
#        150
#        3276
#        21285
#        37927
#        60378
#        75721
#        92402
#        108002
#        126092
#        147910
#        163919
#        182179
#        208082
#        224916
#        240388
#        256109
#        275535
#        293343
#        309413
#        329975
#
# Disc length: 4614 seconds
#
# Revision: 0
# Processed by: cddbd v1.5.1PL2 Copyright (c) Steve Scherf et al.
# Submitted via: ExactAudioCopy v0.95b2
#
DISCID=19120414
DTITLE=Blue - 4Ever
DYEAR=1900
DGENRE=R&B
TTITLE0=One Love (Live)
TTITLE1=Only Word I Know
TTITLE2=Sweet Thing
TTITLE3=The Gift
TTITLE4=Quand Le Redeau Tombe
TTITLE5=Live RIP
TTITLE6=Get Ready
TTITLE7=All Rise
TTITLE8=Alive
TTITLE9=It's Alright
TTITLE10=Get Down On It (Feat. Kool and The Gang)
TTITLE11=Too Close
TTITLE12=Elements
TTITLE13=4 Play
TTITLE14=Made For Loving You
TTITLE15=Breathe Easy (Feat. Jamie Summaz From Vs)
TTITLE16=I Believe My Heart(Duncan James and Keedie)
TTITLE17=Welcome To She Show
TTITLE18=This Temptation (Blacksmith R and B Radio Rib)
TTITLE19=Supersexual (Pumpin Dolls Radio Edit)
EXTD=
EXTT0=
EXTT1=
EXTT2=
EXTT3=
EXTT4=
EXTT5=
EXTT6=
EXTT7=
EXTT8=
EXTT9=
EXTT10=
EXTT11=
EXTT12=
EXTT13=
EXTT14=
EXTT15=
EXTT16=
EXTT17=
EXTT18=
EXTT19=
PLAYORDER=
